<svg width="81" height="30" viewBox="0 0 81 30" fill="none" xmlns="http://www.w3.org/2000/svg">
<path d="M52.3724 0L51.4742 4.14728H58.4737L59.3718 0H52.3724Z" fill="#BA122B"/>
<path d="M69.6233 9.95984C72.2869 9.95984 73.5567 10.8377 73.7115 12.3816H80.9898C81.2375 7.23535 76.9635 5.41902 70.5215 5.41902C63.8317 5.41902 58.7834 7.78024 56.6774 12.533L58.0711 6.14555H51.0096L49.7088 12.0789C49.3991 7.96188 46.2091 5.69147 41.0369 5.69147C38.1875 5.69147 35.493 6.69045 33.6038 8.4765H33.5418L34.0374 6.14555H27.2547L24.5292 18.6782H8.95069L9.694 14.7428H23.6001L24.6531 9.95984H10.747L11.4903 6.11528H27.2547L28.3387 1.15065H4.70763L0 23.6731H23.4452L22.0825 30H29.082L30.8164 22.0687H30.8783C31.7765 23.3704 33.9445 24.3694 37.0726 24.3694C42.3996 24.3694 46.4878 21.7054 48.47 17.982L47.2311 23.6428H54.1997L55.5934 17.3462C55.6243 22.1292 59.5267 24.3694 66.3714 24.3694C74.1142 24.3694 78.2024 21.6449 80.3703 16.8013H72.9372C71.9462 18.8598 70.026 19.8588 67.4863 19.8588C64.1105 19.8588 62.5929 18.0728 63.2742 14.8942C63.9556 11.7156 66.3404 9.95984 69.6233 9.95984ZM42.3067 14.9245C41.6873 17.8306 39.5812 19.3745 36.3912 19.3745C33.1082 19.3745 31.7765 17.6187 32.3649 14.9245C32.9534 12.2302 35.0594 10.4745 38.3424 10.4745C41.5324 10.4745 42.9571 12.0183 42.3067 14.9245Z" fill="#BA122B"/>
</svg>
