<svg width="210" height="30" viewBox="0 0 210 30" fill="none" xmlns="http://www.w3.org/2000/svg">
<path d="M44.1402 29.5634H40.8254V27.7547C39.7819 29.1268 38.2473 30 36.0989 30C31.8634 30 28.5486 26.632 28.5486 21.9543C28.5486 17.2765 31.8634 13.9085 36.0989 13.9085C38.2473 13.9085 39.7819 14.7817 40.8254 16.1538V14.2827H44.1402V29.5634ZM31.9861 21.8919C31.9861 24.5738 33.7049 26.8191 36.5285 26.8191C39.2295 26.8191 41.071 24.6985 41.071 21.8919C41.071 19.0852 39.2295 16.9647 36.5285 16.9647C33.7049 16.9647 31.9861 19.21 31.9861 21.8919Z" fill="#582C83"/>
<path d="M57.7061 17.2765H51.936V23.9501C51.936 26.0083 52.9795 26.8191 54.3299 26.8191C55.3735 26.8191 56.4784 26.3825 57.3378 25.7588L58.6268 28.4407C57.3991 29.2516 55.8645 29.9376 54.023 29.9376C50.5855 29.9376 48.6212 28.0665 48.6212 24.0125V17.2765H45.6134V14.2204H48.6212V9.60499H51.936V14.2204H57.7061V17.2765Z" fill="#582C83"/>
<path d="M63.292 16.0291C64.5197 14.2827 66.3612 13.7838 67.8958 13.7838C71.4561 13.7838 74.0342 16.2786 74.0342 19.896V29.501H70.7195V21.0187C70.7195 18.4615 69.4304 17.027 67.2206 17.027C65.0722 17.027 63.292 18.4615 63.292 21.0811V29.5634H59.9773V6.48649H63.292V16.0291Z" fill="#582C83"/>
<path d="M90.8535 21.8295C90.8535 22.2661 90.7921 22.7027 90.7921 23.0769H79.6202C80.0499 25.8212 81.9528 27.0062 84.1012 27.0062C85.6358 27.0062 87.2318 26.3825 88.4595 25.3846L90.1169 27.7547C88.2753 29.3763 86.1883 29.9376 83.9171 29.9376C79.3746 29.9376 76.1827 26.7568 76.1827 21.8919C76.1827 17.0894 79.2519 13.8462 83.6715 13.8462C87.9684 13.7838 90.8535 17.0894 90.8535 21.8295ZM79.6816 20.5821H87.4774C87.109 18.2121 85.7586 16.7775 83.6715 16.7775C81.3389 16.7775 79.9885 18.3368 79.6816 20.5821Z" fill="#582C83"/>
<path d="M107.243 19.896V29.501H103.928V21.0187C103.928 18.4615 102.639 17.027 100.429 17.027C98.281 17.027 96.5008 18.4615 96.5008 21.0811V29.5634H93.1861V14.2204H96.4394V16.0915C97.6671 14.2827 99.5086 13.8462 101.043 13.8462C104.665 13.7838 107.243 16.341 107.243 19.896Z" fill="#582C83"/>
<path d="M124.922 29.5634H121.607V27.7547C120.563 29.1268 119.029 30 116.88 30C112.645 30 109.33 26.632 109.33 21.9543C109.33 17.2765 112.645 13.9085 116.88 13.9085C119.029 13.9085 120.563 14.7817 121.607 16.1538V14.2827H124.922V29.5634ZM112.768 21.8919C112.768 24.5738 114.486 26.8191 117.31 26.8191C120.011 26.8191 121.852 24.6985 121.852 21.8919C121.852 19.0852 120.011 16.9647 117.31 16.9647C114.486 16.9647 112.768 19.21 112.768 21.8919Z" fill="#582C83"/>
<path d="M130.139 17.0894C131.306 15.0936 133.393 14.2204 135.418 14.2204C139.163 14.2204 141.68 16.5281 141.68 20.2703V29.501H139.899V20.894C139.899 17.8378 138.181 16.0291 135.173 16.0291C132.411 16.0291 130.201 18.0873 130.201 21.0187V29.5634H128.421V6.48649H130.201V17.0894H130.139Z" fill="#582C83"/>
<path d="M158.437 21.9543C158.437 22.2037 158.437 22.4532 158.376 22.7027H145.976C146.222 26.1954 148.677 28.1913 151.685 28.1913C153.772 28.1913 155.368 27.3805 156.719 26.0707L157.701 27.3181C155.798 29.2516 153.772 29.8129 151.624 29.8129C147.265 29.8129 144.196 26.632 144.196 22.079C144.196 17.526 147.388 14.2827 151.562 14.2827C155.43 14.2204 158.376 17.4012 158.437 21.9543ZM146.038 21.0811H156.657C156.412 17.9626 154.325 15.842 151.501 15.842C148.432 15.842 146.345 18.0249 146.038 21.0811Z" fill="#582C83"/>
<path d="M175.072 29.5634H173.292V26.6944C172.126 28.5655 170.1 29.8129 167.399 29.8129C163.225 29.8129 159.972 26.5073 159.972 22.079C159.972 17.5884 163.225 14.2827 167.399 14.2827C170.1 14.2827 172.065 15.5301 173.292 17.4012V14.5322H175.072V29.5634ZM161.875 22.0166C161.875 25.3846 164.269 28.0665 167.645 28.0665C171.021 28.0665 173.415 25.447 173.415 22.0166C173.415 18.5863 171.021 15.9667 167.645 15.9667C164.269 15.9667 161.875 18.5863 161.875 22.0166Z" fill="#582C83"/>
<path d="M180.536 6.48649H178.756V29.501H180.536V6.48649Z" fill="#582C83"/>
<path d="M194.347 16.1538H187.533V24.3243C187.533 26.8815 188.884 28.0042 190.848 28.0042C192.137 28.0042 193.304 27.5676 194.163 26.8815L195.022 28.2536C193.979 29.1268 192.506 29.7505 190.725 29.7505C187.656 29.7505 185.753 28.0042 185.753 24.3867V16.1538H182.316V14.4699H185.692V9.54262H187.472V14.4699H194.286V16.1538H194.347Z" fill="#582C83"/>
<path d="M198.46 17.0894C199.626 15.0936 201.713 14.2204 203.739 14.2204C207.483 14.2204 210 16.5281 210 20.2703V29.501H208.22V20.894C208.22 17.8378 206.501 16.0291 203.493 16.0291C200.731 16.0291 198.521 18.0873 198.521 21.0187V29.5634H196.741V6.48649H198.521V17.0894H198.46Z" fill="#582C83"/>
<path d="M10.9314 14.2204C10.9314 14.2204 8.04633 10.6653 7.98494 6.73597C7.92356 2.80665 10.6858 0 10.6858 0C10.6858 0 13.5709 3.55509 13.6323 7.48441C13.6937 11.4137 10.9314 14.2204 10.9314 14.2204Z" fill="#B5C428"/>
<path d="M26.4002 9.72973C26.4002 9.72973 26.7071 17.6507 22.8399 23.0769C18.9727 28.5031 12.3432 29.3763 12.3432 29.3763C12.3432 29.3763 12.0363 21.4553 15.9035 16.0291C19.7707 10.6029 26.4002 9.72973 26.4002 9.72973ZM15.5966 8.79418C15.5966 9.85447 16.3946 10.6653 17.4381 10.6653C18.4816 10.6653 19.2796 9.85447 19.2796 8.79418C19.2796 7.73389 18.4816 6.92308 17.4381 6.92308C16.3946 6.92308 15.5966 7.73389 15.5966 8.79418Z" fill="#7A9A01"/>
<path d="M10.8086 22.3285C10.8086 22.2661 10.8086 22.2661 10.8086 22.2661C10.8086 20.7069 10.5631 15.9667 8.10771 12.5364C5.09989 8.41996 0.00501094 7.73389 0.00501094 7.73389C0.00501094 7.73389 -0.240525 13.7838 2.70591 17.9626C4.85435 20.894 7.98494 22.1414 9.64231 22.578V29.1268C9.64231 29.4387 9.88785 29.6881 10.1948 29.6881C10.5017 29.6881 10.7472 29.4387 10.7472 29.1268V22.5156C10.8086 22.4532 10.8086 22.3909 10.8086 22.3285Z" fill="#B5C428"/>
</svg>
