<svg width="162" height="40" viewBox="0 0 162 40" fill="none" xmlns="http://www.w3.org/2000/svg">
<path d="M68.6515 29.0332H74.1712L71.1046 33.7132H68.1089L66.8255 33.6899C60.1405 33.5082 55.2188 28.3397 55.2188 21.8293V21.7627C55.2188 15.201 60.2178 9.82658 67.3781 9.82658C71.779 9.82658 74.4121 11.2775 76.5771 13.3885L73.3087 17.1124C71.5118 15.4996 69.6804 14.5093 67.3472 14.5093C63.4144 14.5093 60.5832 17.7402 60.5832 21.698V21.7627C60.5832 25.7195 63.348 29.017 67.3472 29.017M115.99 23.452C115.99 21.0864 117.22 19.873 119.145 19.873C121.072 19.873 122.204 21.0864 122.204 23.452V33.2834H127.25V21.8779C127.25 17.8348 125.027 15.3333 121.206 15.3333C118.647 15.3333 117.154 16.6834 115.99 18.1649V15.6616H110.941V33.2834H115.99V23.452ZM151.271 15.6617H156.324V19.2156C157.351 16.7798 159.013 15.203 162 15.3334V20.5603H161.732C158.378 20.5603 156.324 22.567 156.324 26.773V33.2835H151.271V15.6617ZM139.327 19.3461C141.452 19.3461 142.785 20.8599 143.079 23.0933H135.477C135.872 20.8257 137.237 19.3461 139.327 19.3461ZM145.64 29.3078H139.893C137.629 29.3078 136.04 28.483 135.54 26.2145H147.93C147.962 25.7549 147.996 25.2953 147.996 24.9004C147.996 19.9038 145.273 15.3326 139.327 15.3326C134.146 15.3326 130.525 19.4747 130.525 24.5046V24.573C130.525 29.9627 134.476 33.6766 139.824 33.6766H142.781L145.64 29.3078ZM96.9373 15.6617H101.989V19.2156C103.019 16.7798 104.68 15.203 107.663 15.3334V20.5603H107.403C104.048 20.5603 101.989 22.567 101.989 26.773V33.2835H96.9373V15.6617ZM84.9973 19.3461C87.1187 19.3461 88.4503 20.8599 88.7466 23.0933H81.1409C81.5408 20.8257 82.9014 19.3461 84.9973 19.3461ZM91.3024 29.3078H85.5581C83.3013 29.3078 81.7071 28.483 81.209 26.2145H93.5965C93.6319 25.7549 93.6637 25.2953 93.6637 24.9004C93.6637 19.9038 90.9407 15.3326 84.9973 15.3326C79.813 15.3326 76.1928 19.4747 76.1928 24.5046V24.573C76.1928 29.9627 80.1438 33.6766 85.4945 33.6766H88.4475L91.3024 29.3078Z" fill="#0E94D2"/>
<path d="M1.07476 9.63166C0.898433 9.93389 0.742102 10.2415 0.613038 10.5401L0.554868 10.6733L1.36106 12.9597L5.32842 15.3308L5.49384 14.9251C7.59976 9.68383 12.6342 6.29728 18.3239 6.29728C22.1413 6.29728 25.6996 7.81651 28.3354 10.5761L28.4454 10.6913H28.5272L35.8439 10.0994C32.2492 3.86957 25.5387 0 18.3239 0C11.2226 0 4.78035 3.59973 1.07476 9.63166Z" fill="#0E94D2"/>
<path d="M1.36106 27.0403L0.554868 29.3285L0.613038 29.459C0.742102 29.7603 0.898433 30.0661 1.08021 30.3755C4.78035 36.4039 11.2226 40 18.3239 40C25.3797 40 31.9447 36.3085 35.5903 30.3198C32.6282 30.9782 27.8037 31.3362 25.895 31.4549C23.6646 32.9157 21.0651 33.7018 18.3239 33.7018C12.6342 33.7018 7.59976 30.3153 5.49384 25.074L5.32842 24.6683L1.36106 27.0403Z" fill="url(#paint0_radial_1_1875)"/>
<path d="M0.00589159 13.217C0.00589159 13.2548 0.00589159 13.2917 0.00152886 13.3312C-0.0257382 14.577 0.402354 15.6555 1.2749 16.5352C1.2749 16.5352 4.04977 20.5577 18.5177 21.2008C27.3531 21.5939 45.0276 18.8307 45.0276 18.8307L49.104 12.6036C49.104 12.6036 27.0968 14.9683 18.6485 14.9683C5.50947 14.9683 3.02544 11.1473 3.02544 11.1473C1.67027 9.81516 1.79025 8.42725 1.79025 8.42725C1.08221 9.37531 0.0422476 10.8972 0.00589159 13.217Z" fill="url(#paint1_linear_1_1875)"/>
<path d="M19.5555 23.5961C13.5731 23.5961 9.4003 22.577 6.68632 21.9897C3.91326 21.3888 1.9573 22.7371 1.27472 23.3641C0.359454 24.2051 -0.0259199 25.3258 0.00134714 26.5671C0.00570987 26.6094 0.00570987 26.6436 0.00570987 26.6823C0.0420659 29.0002 1.08185 30.5257 1.78988 31.4729C1.78988 31.4729 1.66991 30.0877 3.02508 28.7565C3.02508 28.7565 4.73381 27.007 6.55707 27.6501C9.54372 28.8068 19.2517 29.4509 19.2517 29.4509C28.9442 29.4509 39.5847 27.2804 39.5847 27.2804L43.6557 21.0488C43.6557 21.0488 31.0031 23.5961 19.5555 23.5961Z" fill="url(#paint2_linear_1_1875)"/>
<defs>
<radialGradient id="paint0_radial_1_1875" cx="0" cy="0" r="1" gradientUnits="userSpaceOnUse" gradientTransform="translate(82.3068 19.9385) scale(95.2257 20.5284)">
<stop stop-color="#85D3E4"/>
<stop offset="1" stop-color="#0D94D2"/>
</radialGradient>
<linearGradient id="paint1_linear_1_1875" x1="-0.000157031" y1="20.0006" x2="161.999" y2="20.0006" gradientUnits="userSpaceOnUse">
<stop stop-color="#7BC143"/>
<stop offset="0.423309" stop-color="#D7DE27"/>
<stop offset="1" stop-color="#7BC143"/>
</linearGradient>
<linearGradient id="paint2_linear_1_1875" x1="-9.25553e-05" y1="26.2609" x2="43.6562" y2="26.2609" gradientUnits="userSpaceOnUse">
<stop stop-color="#7BC143"/>
<stop offset="0.423309" stop-color="#D7DE27"/>
<stop offset="1" stop-color="#7BC143"/>
</linearGradient>
</defs>
</svg>
